# xmcd CD database file
#
# Track frame offsets:
#	182
#	11720
#	23285
#	34330
#	53942
#	64190
#	78037
#	90455
#	106577
#	120925
#	129662
#	140577
#	163405
#	179785
#	195232
#	206572
#	220327
#	234187
#	246887
#
# Disc length: 3579 seconds
#
# Revision: 0
# Processed by: cddbd v1.5.2PL0 Copyright (c) Steve Scherf et al.
# Submitted via: CDex 1.70beta2
#
DISCID=fb0df913
DTITLE=Various Artist - Bonanza
DYEAR=1900
DGENRE=Country
TTITLE0=Socha svobody
TTITLE1=Můj rodný dům
TTITLE2=Hádka s andělem
TTITLE3=Malej Joe, náš honák
TTITLE4=Durham's reel
TTITLE5=Colorado trail
TTITLE6=Pochod amerických námořníků
TTITLE7=Laredo
TTITLE8=Tak jeď dál
TTITLE9=První půjdu dál
TTITLE10=Texaská hymna
TTITLE11=Dobytčí stezka
TTITLE12=Údolí Červené řeky
TTITLE13=Až sem stáda přiženem
TTITLE14=Rodné údolí
TTITLE15=Vyplouvám
TTITLE16=Ďáblovo stádo
TTITLE17=Měsíc nad Portlandem
TTITLE18=On zůstal sám
EXTD=
EXTT0=
EXTT1=
EXTT2=
EXTT3=
EXTT4=
EXTT5=
EXTT6=
EXTT7=
EXTT8=
EXTT9=
EXTT10=
EXTT11=
EXTT12=
EXTT13=
EXTT14=
EXTT15=
EXTT16=
EXTT17=
EXTT18=
PLAYORDER=
